<?xml version="1.0" encoding="UTF-8" standalone="no"?>
<!-- Created with Inkscape (http://www.inkscape.org/) -->

<svg
   xmlns:dc="http://purl.org/dc/elements/1.1/"
   xmlns:cc="http://creativecommons.org/ns#"
   xmlns:rdf="http://www.w3.org/1999/02/22-rdf-syntax-ns#"
   xmlns:svg="http://www.w3.org/2000/svg"
   xmlns="http://www.w3.org/2000/svg"
   xmlns:sodipodi="http://sodipodi.sourceforge.net/DTD/sodipodi-0.dtd"
   xmlns:inkscape="http://www.inkscape.org/namespaces/inkscape"
   id="svg2985"
   version="1.1"
   inkscape:version="0.48.5 r10040"
   width="1777.0938"
   height="1777.0938"
   sodipodi:docname="distillation_base.svg"
   inkscape:export-filename="C:\Users\andrew\Documents\vce-desktop\reactor_icon.png"
   inkscape:export-xdpi="7.5999999"
   inkscape:export-ydpi="7.5999999">
  <metadata
     id="metadata2991">
    <rdf:RDF>
      <cc:Work
         rdf:about="">
        <dc:format>image/svg+xml</dc:format>
        <dc:type
           rdf:resource="http://purl.org/dc/dcmitype/StillImage" />
        <dc:title />
      </cc:Work>
    </rdf:RDF>
  </metadata>
  <defs
     id="defs2989">
    <marker
       inkscape:stockid="Arrow1Lend"
       orient="auto"
       refY="0"
       refX="0"
       id="Arrow1Lend"
       style="overflow:visible">
      <path
         id="path3829"
         d="M 0,0 5,-5 -12.5,0 5,5 0,0 z"
         style="fill-rule:evenodd;stroke:#000000;stroke-width:1pt"
         transform="matrix(-0.8,0,0,-0.8,-10,0)"
         inkscape:connector-curvature="0" />
    </marker>
    <clipPath
       clipPathUnits="userSpaceOnUse"
       id="clipPath3765">
      <rect
         style="fill:none;stroke:#000000;stroke-width:1.00063086;stroke-opacity:1"
         id="rect3767"
         width="1426.4146"
         height="1625.1566"
         x="301.88708"
         y="186.16383"
         ry="33.114895" />
    </clipPath>
    <marker
       inkscape:stockid="Arrow1Lend"
       orient="auto"
       refY="0"
       refX="0"
       id="Arrow1Lend-6"
       style="overflow:visible">
      <path
         id="path3829-1"
         d="M 0,0 5,-5 -12.5,0 5,5 0,0 z"
         style="fill-rule:evenodd;stroke:#000000;stroke-width:1pt"
         transform="matrix(-0.8,0,0,-0.8,-10,0)"
         inkscape:connector-curvature="0" />
    </marker>
  </defs>
  <sodipodi:namedview
     pagecolor="#ffffff"
     bordercolor="#666666"
     borderopacity="1"
     objecttolerance="10"
     gridtolerance="10"
     guidetolerance="10"
     inkscape:pageopacity="0"
     inkscape:pageshadow="2"
     inkscape:window-width="1920"
     inkscape:window-height="1001"
     id="namedview2987"
     showgrid="true"
     showborder="false"
     inkscape:showpageshadow="false"
     inkscape:zoom="0.39750001"
     inkscape:cx="445.53456"
     inkscape:cy="1099.8218"
     inkscape:window-x="-9"
     inkscape:window-y="-9"
     inkscape:window-maximized="1"
     inkscape:current-layer="svg2985"
     fit-margin-top="0"
     fit-margin-left="0"
     fit-margin-right="0"
     fit-margin-bottom="0" />
  <rect
     style="fill:#00a5ff;fill-opacity:1;stroke:#000000;stroke-opacity:1"
     id="rect3771"
     width="1776.1006"
     height="1776.1006"
     x="0.4903717"
     y="0.50294495"
     ry="0"
     inkscape:export-filename="C:\Users\andrew\Documents\vce-desktop\distillation.png"
     inkscape:export-xdpi="7.5999999"
     inkscape:export-ydpi="7.5999999" />
  <path
     style="fill:#fffff9;fill-opacity:1;stroke:#000000;stroke-width:4.2453208;stroke-miterlimit:4;stroke-opacity:1;stroke-dasharray:none"
     d="m 668.40733,333.082 c 0,-71.18198 57.70441,-128.8864 128.88641,-128.8864 71.18201,0 128.88639,57.70442 128.88639,128.88641 l -128.88639,0 z"
     id="path3011"
     inkscape:connector-curvature="0" />
  <rect
     style="fill:#fffff9;fill-opacity:1;stroke:#000000;stroke-width:4.2453208;stroke-miterlimit:4;stroke-opacity:1;stroke-dasharray:none"
     id="rect3782"
     width="257.77875"
     height="1131.5968"
     x="668.4043"
     y="332.57556"
     ry="9.3956966"
     rx="0" />
  <path
     style="fill:none;stroke:#000000;stroke-width:4.2453208;stroke-linecap:butt;stroke-linejoin:miter;stroke-miterlimit:4;stroke-opacity:1;stroke-dasharray:none"
     d="m 799.93513,203.15584 c 0,-44.05831 0,-44.78058 0,-44.78058 l 249.19747,0 0,0.18057 0,174.23574 c -122.95247,0 -122.95247,0 -122.95247,0"
     id="path3786"
     inkscape:connector-curvature="0"
     sodipodi:nodetypes="ccccc" />
  <path
     sodipodi:type="arc"
     style="fill:#00ffff;fill-opacity:1;stroke:#000000;stroke-width:22.3488636;stroke-miterlimit:4;stroke-opacity:1;stroke-dasharray:none"
     id="path3784"
     sodipodi:cx="-545.91193"
     sodipodi:cy="264.15097"
     sodipodi:rx="198.74214"
     sodipodi:ry="198.74214"
     d="m -347.16978,264.15097 a 198.74214,198.74214 0 1 1 -397.48429,0 198.74214,198.74214 0 1 1 397.48429,0 z"
     transform="matrix(0.18995691,0,0,0.18995691,1024.5488,108.40373)" />
  <rect
     style="fill:#ffffff;fill-opacity:1;stroke:#000000;stroke-width:4.2453208;stroke-miterlimit:4;stroke-opacity:1;stroke-dasharray:none"
     id="rect3788"
     width="170.88084"
     height="76.896385"
     x="960.8479"
     y="193.26343"
     ry="28.619791"
     rx="39.872196" />
  <g
     id="g5590">
    <path
       style="font-size:medium;font-style:normal;font-variant:normal;font-weight:normal;font-stretch:normal;text-indent:0;text-align:start;text-decoration:none;line-height:normal;letter-spacing:normal;word-spacing:normal;text-transform:none;direction:ltr;block-progression:tb;writing-mode:lr-tb;text-anchor:start;baseline-shift:baseline;color:#000000;fill:#000000;fill-opacity:1;stroke:none;stroke-width:4.2453208;marker:none;visibility:visible;display:inline;overflow:visible;enable-background:accumulate;font-family:Sans;-inkscape-font-specification:Sans"
       d="m 1434.5,330.59375 c 0,0 -302.9622,0.0937 -385.375,0.0937 l 0,4.25 c 82.416,0 385.375,-0.0937 385.375,-0.0937 l 0,-4.25 z"
       id="path3792"
       inkscape:connector-curvature="0" />
    <path
       inkscape:connector-curvature="0"
       style="fill-rule:evenodd;stroke:#000000;stroke-width:0.8pt"
       d="m 1392.0418,332.72522 -16.9762,16.98635 59.4294,-16.999 -59.4396,-16.96357 16.9864,16.97622 z"
       id="path5596" />
  </g>
  <g
     id="g3816"
     transform="matrix(0.2830214,0,0,0.2830214,1243.7483,131.14467)"
     style="stroke:#000000;stroke-width:15;stroke-miterlimit:4;stroke-opacity:1;stroke-dasharray:none">
    <path
       inkscape:transform-center-x="-20.253135"
       d="m -1004.0282,782.10862 0,-70.15891 0,-70.15892 60.75936,35.07946 60.7594,35.07946 -60.7594,35.07945 z"
       inkscape:randomized="0"
       inkscape:rounded="0"
       inkscape:flatsided="false"
       sodipodi:arg2="3.1415927"
       sodipodi:arg1="2.0943951"
       sodipodi:r2="40.506268"
       sodipodi:r1="81.012535"
       sodipodi:cy="711.94971"
       sodipodi:cx="-963.52197"
       sodipodi:sides="3"
       id="path3796"
       style="fill:#ffffff;fill-opacity:1;stroke:#000000;stroke-width:15;stroke-miterlimit:4;stroke-opacity:1;stroke-dasharray:none"
       sodipodi:type="star" />
    <path
       inkscape:transform-center-x="20.253156"
       d="m -1004.0282,782.10862 0,-70.15891 0,-70.15892 60.75936,35.07946 60.7594,35.07946 -60.7594,35.07945 z"
       inkscape:randomized="0"
       inkscape:rounded="0"
       inkscape:flatsided="false"
       sodipodi:arg2="3.1415927"
       sodipodi:arg1="2.0943951"
       sodipodi:r2="40.506268"
       sodipodi:r1="81.012535"
       sodipodi:cy="711.94971"
       sodipodi:cx="-963.52197"
       sodipodi:sides="3"
       id="path3796-1"
       style="fill:#ffffff;fill-opacity:1;stroke:#000000;stroke-width:15;stroke-miterlimit:4;stroke-opacity:1;stroke-dasharray:none"
       sodipodi:type="star"
       transform="matrix(-1,0,0,1,-1762.5553,0.35869792)" />
  </g>
  <g
     id="g5550">
    <path
       style="font-size:medium;font-style:normal;font-variant:normal;font-weight:normal;font-stretch:normal;text-indent:0;text-align:start;text-decoration:none;line-height:normal;letter-spacing:normal;word-spacing:normal;text-transform:none;direction:ltr;block-progression:tb;writing-mode:lr-tb;text-anchor:start;baseline-shift:baseline;color:#000000;fill:#000000;fill-opacity:1;stroke:none;stroke-width:4.2453208;marker:none;visibility:visible;display:inline;overflow:visible;enable-background:accumulate;font-family:Sans;-inkscape-font-specification:Sans"
       d="m 1004.4688,86.4375 c -15.61377,16.32219 -63.10036,60.66491 -82.5313,80.1875 l 0,-20.34375 0,-1.3125 -1.15625,-0.59375 c 0,0 -0.96875,1.90625 -0.96875,1.90625 -3e-5,2e-5 -1.31239,-1.65634 -1.3125,-1.65625 -2.2e-4,1.8e-4 -0.0787,0.049 -0.0937,0.0625 -0.03,0.027 -0.049,0.0497 -0.0625,0.0625 -0.027,0.0256 -0.0397,0.041 -0.0937,0.0937 -0.10805,0.10544 -0.31662,0.32081 -0.71875,0.71875 -0.80426,0.79588 -2.40463,2.38451 -5.59375,5.5625 -6.37823,6.35597 -19.11524,19.05273 -44.5625,44.5 l 3,3 c 25.44638,-25.4464 38.18777,-38.14752 44.5625,-44.5 1.57578,-1.57028 1.85612,-1.86128 2.75,-2.75 l 0,20.28125 0,5.21875 3.65625,-3.71875 c 16.82541,-17.29719 69.42599,-66.25918 86.18745,-83.78125 l -3.0624,-2.9375 z"
       id="path3820"
       inkscape:connector-curvature="0" />
    <path
       inkscape:connector-curvature="0"
       style="fill-rule:evenodd;stroke:#000000;stroke-width:0.8pt"
       d="m 976.64131,118.57066 0.53263,24.00925 28.81316,-54.6866 -53.35504,31.20997 24.00925,-0.53262 z"
       id="path5556" />
  </g>
  <path
     style="fill:none;stroke:#000000;stroke-width:4.2453208;stroke-linecap:butt;stroke-linejoin:miter;stroke-miterlimit:4;stroke-opacity:1;stroke-dasharray:none"
     d="m 668.40733,408.60139 c 208.43348,0 208.43348,1.00692 208.43348,1.00692"
     id="path4266"
     inkscape:connector-curvature="0" />
  <path
     style="fill:#fffff9;fill-opacity:1;stroke:#000000;stroke-width:4.2453208;stroke-miterlimit:4;stroke-opacity:1;stroke-dasharray:none"
     d="m 668.59781,1464.3613 c 0,71.182 57.7045,128.8864 128.8865,128.8864 71.182,0 128.8863,-57.7044 128.8863,-128.8864 l -128.8863,0 z"
     id="path3011-1"
     inkscape:connector-curvature="0" />
  <path
     style="fill:none;stroke:#000000;stroke-width:4.2453208;stroke-linecap:butt;stroke-linejoin:miter;stroke-miterlimit:4;stroke-opacity:1;stroke-dasharray:none"
     d="m 668.40766,554.49419 c 208.43348,0 208.43348,1.0069 208.43348,1.0069"
     id="path4266-4"
     inkscape:connector-curvature="0" />
  <path
     style="fill:none;stroke:#000000;stroke-width:4.2453208;stroke-linecap:butt;stroke-linejoin:miter;stroke-miterlimit:4;stroke-opacity:1;stroke-dasharray:none"
     d="m 668.40766,705.93519 c 208.43344,0 208.43344,1.0069 208.43344,1.0069"
     id="path4266-4-0"
     inkscape:connector-curvature="0" />
  <path
     style="fill:none;stroke:#000000;stroke-width:4.2453208;stroke-linecap:butt;stroke-linejoin:miter;stroke-miterlimit:4;stroke-opacity:1;stroke-dasharray:none"
     d="m 668.40766,857.37919 c 208.43344,0 208.43344,1.0069 208.43344,1.0069"
     id="path4266-4-0-9"
     inkscape:connector-curvature="0" />
  <path
     style="fill:none;stroke:#000000;stroke-width:4.2453208;stroke-linecap:butt;stroke-linejoin:miter;stroke-miterlimit:4;stroke-opacity:1;stroke-dasharray:none"
     d="m 668.40766,1008.8232 c 208.43344,0 208.43344,1.0069 208.43344,1.0069"
     id="path4266-4-0-9-4"
     inkscape:connector-curvature="0" />
  <path
     style="fill:none;stroke:#000000;stroke-width:4.2453208;stroke-linecap:butt;stroke-linejoin:miter;stroke-miterlimit:4;stroke-opacity:1;stroke-dasharray:none"
     d="m 668.94766,1160.2672 c 208.43344,0 208.43344,1.0069 208.43344,1.0069"
     id="path4266-4-0-9-4-8"
     inkscape:connector-curvature="0" />
  <path
     style="fill:none;stroke:#000000;stroke-width:4.2453208;stroke-linecap:butt;stroke-linejoin:miter;stroke-miterlimit:4;stroke-opacity:1;stroke-dasharray:none"
     d="m 668.40766,1311.7112 c 208.43344,0 208.43344,1.0069 208.43344,1.0069"
     id="path4266-4-0-9-4-8-8"
     inkscape:connector-curvature="0" />
  <path
     style="fill:none;stroke:#000000;stroke-width:4.2453208;stroke-linecap:butt;stroke-linejoin:miter;stroke-miterlimit:4;stroke-opacity:1;stroke-dasharray:none"
     d="m 717.75266,478.76917 c 208.4334,0 208.4334,1.00692 208.4334,1.00692"
     id="path4266-2"
     inkscape:connector-curvature="0" />
  <path
     style="fill:none;stroke:#000000;stroke-width:4.24532175;stroke-linecap:butt;stroke-linejoin:miter;stroke-miterlimit:4;stroke-opacity:1;stroke-dasharray:none"
     d="m 717.75266,630.21317 c 208.43368,0 208.43368,1.00692 208.43368,1.00692"
     id="path4266-2-4"
     inkscape:connector-curvature="0" />
  <path
     style="fill:none;stroke:#000000;stroke-width:4.24532175;stroke-linecap:butt;stroke-linejoin:miter;stroke-miterlimit:4;stroke-opacity:1;stroke-dasharray:none"
     d="m 717.75266,781.65717 c 208.43368,0 208.43368,1.00692 208.43368,1.00692"
     id="path4266-2-4-5"
     inkscape:connector-curvature="0" />
  <path
     style="fill:none;stroke:#000000;stroke-width:4.24532175;stroke-linecap:butt;stroke-linejoin:miter;stroke-miterlimit:4;stroke-opacity:1;stroke-dasharray:none"
     d="m 717.75266,933.10117 c 208.43368,0 208.43368,1.00692 208.43368,1.00692"
     id="path4266-2-4-5-5"
     inkscape:connector-curvature="0" />
  <path
     style="fill:none;stroke:#000000;stroke-width:4.24532175;stroke-linecap:butt;stroke-linejoin:miter;stroke-miterlimit:4;stroke-opacity:1;stroke-dasharray:none"
     d="m 717.75266,1084.5452 c 208.43368,0 208.43368,1.0069 208.43368,1.0069"
     id="path4266-2-4-5-5-1"
     inkscape:connector-curvature="0" />
  <path
     style="fill:none;stroke:#000000;stroke-width:4.24532175;stroke-linecap:butt;stroke-linejoin:miter;stroke-miterlimit:4;stroke-opacity:1;stroke-dasharray:none"
     d="m 717.75266,1235.9892 c 208.43368,0 208.43368,1.0069 208.43368,1.0069"
     id="path4266-2-4-5-5-1-7"
     inkscape:connector-curvature="0" />
  <path
     style="fill:none;stroke:#000000;stroke-width:4.24532175;stroke-linecap:butt;stroke-linejoin:miter;stroke-miterlimit:4;stroke-opacity:1;stroke-dasharray:none"
     d="m 717.75266,1387.4332 c 208.43368,0 208.43368,1.0069 208.43368,1.0069"
     id="path4266-2-4-5-5-1-7-1"
     inkscape:connector-curvature="0" />
  <g
     id="g5566"
     transform="translate(4,0)">
    <path
       style="font-size:medium;font-style:normal;font-variant:normal;font-weight:normal;font-stretch:normal;text-indent:0;text-align:start;text-decoration:none;line-height:normal;letter-spacing:normal;word-spacing:normal;text-transform:none;direction:ltr;block-progression:tb;writing-mode:lr-tb;text-anchor:start;baseline-shift:baseline;color:#000000;fill:#000000;fill-opacity:1;stroke:none;stroke-width:4.24499989;marker:none;visibility:visible;display:inline;overflow:visible;enable-background:accumulate;font-family:Sans;-inkscape-font-specification:Sans"
       d="m 935,1431.9688 0,4.25 122.875,0 0,157.875 0,43.3437 -259.65625,0 0,-42.6563 -4.25,0 0,44.7813 0,2.125 2.125,0 263.90625,0 2.125,0 0,-2.125 0,-0.1875 0,-45.2812 0,-160 0,-2.125 -2.125,0 -125,0 z"
       id="path3786-4"
       inkscape:connector-curvature="0" />
    <path
       inkscape:connector-curvature="0"
       style="fill-rule:evenodd;stroke:#000000;stroke-width:0.8pt"
       d="m 977.45,1434.0938 16.98,-16.98 -59.43,16.98 59.43,16.98 -16.98,-16.98 z"
       id="path5572" />
  </g>
  <path
     sodipodi:type="arc"
     style="fill:#ff0000;fill-opacity:1;stroke:#000000;stroke-width:22.3488636;stroke-miterlimit:4;stroke-opacity:1;stroke-dasharray:none"
     id="path3784-2"
     sodipodi:cx="-545.91193"
     sodipodi:cy="264.15097"
     sodipodi:rx="198.74214"
     sodipodi:ry="198.74214"
     d="m -347.16978,264.15097 a 198.74214,198.74214 0 1 1 -397.48429,0 198.74214,198.74214 0 1 1 397.48429,0 z"
     transform="matrix(0.18995691,0,0,0.18995691,1163.6997,1504.6689)" />
  <g
     id="g5558">
    <path
       style="font-size:medium;font-style:normal;font-variant:normal;font-weight:normal;font-stretch:normal;text-indent:0;text-align:start;text-decoration:none;line-height:normal;letter-spacing:normal;word-spacing:normal;text-transform:none;direction:ltr;block-progression:tb;writing-mode:lr-tb;text-anchor:start;baseline-shift:baseline;color:#000000;fill:#000000;fill-opacity:1;stroke:none;stroke-width:4.2453208;marker:none;visibility:visible;display:inline;overflow:visible;enable-background:accumulate;font-family:Sans;-inkscape-font-specification:Sans"
       d="m 1143.5938,1482.6875 c -15.613,16.3215 -63.0674,60.6633 -82.5,80.1875 l 0,-20.3438 0,-1.3124 -1.1563,-0.5938 c 0,0 -0.9687,1.9062 -0.9687,1.9062 -1e-4,1e-4 -1.3124,-1.6563 -1.3126,-1.6562 -2e-4,2e-4 -0.079,0.08 -0.094,0.094 -0.03,0.027 -0.049,0.018 -0.062,0.031 -0.027,0.026 -0.071,0.072 -0.125,0.125 -0.108,0.1054 -0.2854,0.2896 -0.6875,0.6875 -0.8043,0.7959 -2.4046,2.3845 -5.5937,5.5625 -6.3783,6.356 -19.1153,19.084 -44.5626,44.5312 l 3,3 c 25.4465,-25.4463 38.1878,-38.1787 44.5626,-44.5312 1.5802,-1.5747 1.8552,-1.8604 2.75,-2.75 l 0,20.3125 0,5.2187 3.6562,-3.75 c 16.8254,-17.2974 69.3947,-66.2591 86.1562,-83.7812 l -3.0624,-2.9375 z"
       id="path3820-2"
       inkscape:connector-curvature="0" />
    <path
       inkscape:connector-curvature="0"
       style="fill-rule:evenodd;stroke:#000000;stroke-width:0.8pt"
       d="m 1115.7922,1514.8359 0.5327,24.0092 28.8131,-54.6866 -53.355,31.21 24.0092,-0.5326 z"
       id="path5564" />
  </g>
  <g
     id="g5582">
    <path
       style="font-size:medium;font-style:normal;font-variant:normal;font-weight:normal;font-stretch:normal;text-indent:0;text-align:start;text-decoration:none;line-height:normal;letter-spacing:normal;word-spacing:normal;text-transform:none;direction:ltr;block-progression:tb;writing-mode:lr-tb;text-anchor:start;baseline-shift:baseline;color:#000000;fill:#000000;fill-opacity:1;stroke:none;stroke-width:4.24499989;marker:none;visibility:visible;display:inline;overflow:visible;enable-background:accumulate;font-family:Sans;-inkscape-font-specification:Sans"
       d="m 163.15625,877.15625 0,4.25 496.84375,0 0,-4.25 -496.84375,0 z"
       id="path4176"
       inkscape:connector-curvature="0" />
    <path
       inkscape:connector-curvature="0"
       style="fill-rule:evenodd;stroke:#000000;stroke-width:0.8pt"
       d="m 617.55,879.27225 -16.98,16.98 59.43,-16.98 -59.43,-16.98 16.98,16.98 z"
       id="path5588" />
  </g>
  <g
     id="g5574">
    <path
       style="font-size:medium;font-style:normal;font-variant:normal;font-weight:normal;font-stretch:normal;text-indent:0;text-align:start;text-decoration:none;line-height:normal;letter-spacing:normal;word-spacing:normal;text-transform:none;direction:ltr;block-progression:tb;writing-mode:lr-tb;text-anchor:start;baseline-shift:baseline;color:#000000;fill:#000000;fill-opacity:1;stroke:none;stroke-width:4.24499989;marker:none;visibility:visible;display:inline;overflow:visible;enable-background:accumulate;font-family:Sans;-inkscape-font-specification:Sans"
       d="m 1100,1556.9688 0,4.25 330,0 0,-4.25 -330,0 z"
       id="path4732"
       inkscape:connector-curvature="0" />
    <path
       inkscape:connector-curvature="0"
       style="fill-rule:evenodd;stroke:#000000;stroke-width:0.8pt"
       d="m 1387.55,1559.0938 -16.98,16.98 59.43,-16.98 -59.43,-16.98 16.98,16.98 z"
       id="path5580" />
  </g>
</svg>
