<?xml version="1.0" encoding="UTF-8" standalone="no"?>
<!-- Created with Inkscape (http://www.inkscape.org/) -->

<svg
   xmlns:dc="http://purl.org/dc/elements/1.1/"
   xmlns:cc="http://creativecommons.org/ns#"
   xmlns:rdf="http://www.w3.org/1999/02/22-rdf-syntax-ns#"
   xmlns:svg="http://www.w3.org/2000/svg"
   xmlns="http://www.w3.org/2000/svg"
   xmlns:xlink="http://www.w3.org/1999/xlink"
   xmlns:sodipodi="http://sodipodi.sourceforge.net/DTD/sodipodi-0.dtd"
   xmlns:inkscape="http://www.inkscape.org/namespaces/inkscape"
   id="svg2985"
   version="1.1"
   inkscape:version="0.48.5 r10040"
   width="4227.584"
   height="4227.5854"
   sodipodi:docname="flash_base.svg">
  <metadata
     id="metadata2991">
    <rdf:RDF>
      <cc:Work
         rdf:about="">
        <dc:format>image/svg+xml</dc:format>
        <dc:type
           rdf:resource="http://purl.org/dc/dcmitype/StillImage" />
        <dc:title />
      </cc:Work>
    </rdf:RDF>
  </metadata>
  <defs
     id="defs2989">
    <pattern
       inkscape:collect="always"
       xlink:href="#Strips1_1"
       id="pattern5360"
       patternTransform="matrix(10,0,0,3.6363176,-10.829198,885.83597)" />
    <pattern
       inkscape:stockid="Stripes 1:1"
       id="Strips1_1"
       patternTransform="translate(0,0) scale(10,10)"
       height="1"
       width="2"
       patternUnits="userSpaceOnUse"
       inkscape:collect="always">
      <rect
         id="rect4587"
         height="2"
         width="1"
         y="-0.5"
         x="0"
         style="fill:black;stroke:none" />
    </pattern>
    <clipPath
       clipPathUnits="userSpaceOnUse"
       id="clipPath3765">
      <rect
         style="fill:none;stroke:#000000;stroke-width:1.00063086;stroke-opacity:1"
         id="rect3767"
         width="1426.4146"
         height="1625.1566"
         x="301.88708"
         y="186.16383"
         ry="33.114895" />
    </clipPath>
  </defs>
  <sodipodi:namedview
     pagecolor="#ffffff"
     bordercolor="#666666"
     borderopacity="1"
     objecttolerance="10"
     gridtolerance="10"
     guidetolerance="10"
     inkscape:pageopacity="0"
     inkscape:pageshadow="2"
     inkscape:window-width="1920"
     inkscape:window-height="1001"
     id="namedview2987"
     showgrid="true"
     showborder="false"
     inkscape:showpageshadow="false"
     inkscape:zoom="0.125"
     inkscape:cx="3233.2683"
     inkscape:cy="2819.4308"
     inkscape:window-x="-9"
     inkscape:window-y="-9"
     inkscape:window-maximized="1"
     inkscape:current-layer="svg2985"
     fit-margin-top="0"
     fit-margin-left="0"
     fit-margin-right="0"
     fit-margin-bottom="0"
     borderlayer="false">
    <inkscape:grid
       type="xygrid"
       id="grid4335"
       empspacing="5"
       visible="true"
       enabled="true"
       snapvisiblegridlinesonly="true"
       originx="0.11014354px"
       originy="0.23558393px" />
  </sodipodi:namedview>
  <g
     id="g3817"
     transform="matrix(2.1593391,0,0,2.1593391,-4000.0656,-1089.2257)">
    <g
       id="g4052">
      <path
         style="fill:#00a5ff;fill-opacity:1;stroke:none"
         d="m 1852.449,504.5 0.051,-0.0745 0,1957.7414 -0.036,-0.036 1957.7413,0 -0.075,0.1091 0,-1957.72924 0.1325,-0.0106 z m 520.3293,779.7802 35.2019,0 c 0.035,0 0.068,7.1588 0.068,16.0853 l 0,14.1566 c 0,8.9264 -0.034,16.1198 -0.068,16.1198 l -35.2019,0 c -0.035,0 -0.068,-7.1934 -0.068,-16.1198 l 0,-14.1566 c 0,-8.9265 0.034,-16.0853 0.068,-16.0853 z"
         id="rect3771"
         inkscape:export-filename="C:\Users\andrew\Documents\vce-desktop\reactor_mod.png"
         inkscape:export-xdpi="35.450001"
         inkscape:export-ydpi="35.450001"
         inkscape:connector-curvature="0"
         sodipodi:nodetypes="cccccccccsssssssss" />
    </g>
    <rect
       ry="33.114895"
       y="1105.0938"
       x="2236"
       height="252"
       width="260"
       id="rect3815"
       style="fill:#00a5ff;fill-opacity:1;stroke:none" />
  </g>
  <g
     id="g4487"
     transform="translate(345.62383,-2310.236)"
     inkscape:export-filename="C:\Users\andrew\Documents\vce-desktop\reactor_mod.png"
     inkscape:export-xdpi="35.450001"
     inkscape:export-ydpi="35.450001" />
  <path
     style="fill:#ffffff;fill-opacity:1;stroke:#000000;stroke-width:0;stroke-miterlimit:4;stroke-opacity:1;stroke-dasharray:none"
     d=""
     id="path4521"
     inkscape:connector-curvature="0" />
  <path
     style="fill:none;stroke:none"
     d="m 1967.7724,3402.3328 c -164.6839,-7.6348 -285.1895,-28.6734 -422.1472,-73.701 -184.8337,-60.768 -299.6195,-132.356 -409.5396,-255.4162 -68.4409,-76.6226 -113.8197,-153.4424 -144.63041,-244.8393 -30.93722,-91.7717 -28.81143,-18.827 -27.64343,-948.5604 l 1.04592,-832.5604 18.99069,-37.4396 c 90.88033,-179.168 355.11393,-301.23767 743.00923,-343.25283 97.7597,-10.58891 191.2695,-16.17193 271,-16.18009 l 65,-0.007 0,963.79592 0,963.7959 -14.3798,-6.0083 c -47.197,-19.7201 -149.725,-31.1535 -279.6202,-31.1817 -202.2729,-0.044 -323.3754,27.6993 -312.3671,71.5598 9.5483,38.0435 148.5016,60.7903 347.4653,56.8805 134.291,-2.6389 212.7531,-13.3394 254.69,-34.734 13.858,-7.0699 14.6961,-7.0594 29.1653,0.3636 18.1756,9.3246 68.0411,21.1562 119.0465,28.246 50.9149,7.0774 288.1628,7.2292 338,0.2164 98.4573,-13.8544 146,-32.9169 146,-58.5397 0,-31.6068 -82.7041,-53.7981 -235.3287,-63.1436 -131.386,-8.0451 -301.1106,6.4409 -359.0359,30.6436 l -13.6354,5.6974 0,-963.7959 0,-963.79592 71,0.0336 c 82.3605,0.039 210.909,8.46883 303.3746,19.8944 257.1277,31.77216 464.5733,102.17842 585.0328,198.55787 65.4562,52.3715 119.808,121.4709 134.6929,171.24015 5.1171,17.1095 5.8997,129.6673 5.8997,848.5581 0,912.2554 1.5864,852.0591 -24.5427,931.2517 -22.752,68.9576 -64.7569,149.6201 -108.8049,208.9398 -49.413,66.5447 -143.1683,150.8273 -222.9193,200.3962 -146.6926,91.1762 -355.2096,151.647 -581.7331,168.7052 -79.8917,6.0161 -200.6224,7.9244 -277.0852,4.3795 z"
     id="path4026"
     inkscape:connector-curvature="0" />
  <path
     style="fill:none;stroke:none"
     d="m 1711.4825,2807.5852 c -64.1687,-3.9375 -156.769,-19.8114 -185.7486,-31.8417 -12.1265,-5.0342 -13.0514,-6.4046 -7.8398,-11.6164 8.696,-8.6962 77.2535,-24.9634 128.7102,-30.5401 71.3425,-7.7319 266.1095,-6.3897 328.8782,2.2665 53.7313,7.4098 114.0001,23.6922 114.0001,30.7986 0,13.7612 -87.3394,32.3047 -186.0001,39.4909 -51.4288,3.746 -143.2199,4.4354 -192,1.4422 l 0,0 z"
     id="path4048"
     inkscape:connector-curvature="0" />
  <path
     style="fill:none;stroke:none"
     d="m 1894.9614,3395.9317 c -227.5444,-19.2537 -458.3141,-90.4708 -598,-184.547 -110.7634,-74.5974 -210.3252,-184.294 -263.8034,-290.6568 -20.4714,-40.7155 -46.18981,-105.7826 -54.70051,-138.3909 -11.49303,-44.0349 -13.18621,-165.5536 -13.26464,-952 l -0.0778,-780 19.53701,-36.8019 c 10.7453,-20.24115 27.65084,-47.24115 37.56774,-60.00005 140.6973,-181.01845 475.8587,-287.76539 941.7416,-299.93918 l 97,-2.53467 0,961.9327 0,961.9327 -27,-8.8994 c -46.9601,-15.4784 -110.6053,-22.442 -225.4515,-24.6671 -205.4379,-3.9802 -333.9459,16.7461 -352.1974,56.8038 -9.2521,20.306 13.5959,38.1103 66.8993,52.1314 51.7132,13.6029 124.1076,19.329 243.7496,19.2798 145.1747,-0.06 228.7517,-8.739 282.4833,-29.3348 l 22.4833,-8.6181 31.5167,10.205 c 69.0526,22.3591 93.0536,24.5098 273.5167,24.5098 177.3531,0 202.5896,-2.1525 264.8445,-22.5898 76.1358,-24.9941 64.8067,-61.6799 -25.7679,-83.4418 -131.6297,-31.6261 -431.1346,-26.1351 -516.3407,9.4663 l -14.7359,6.1571 0,-962.4185 0,-962.41838 103,2.48766 c 363.2458,8.77313 656.7606,79.05928 827,198.03647 62.3884,43.6021 127.2834,116.3996 153.3708,172.04745 l 10.6292,22.6735 1.1876,770 c 0.7031,455.8284 -0.4007,806.9277 -2.7053,860.5058 -3.8196,88.803 -4.1706,91.3419 -18.6568,134.9501 -33.7412,101.5722 -95.5888,206.0779 -162.9082,275.2707 -169.2963,174.0075 -377.9857,265.5219 -692.9173,303.858 -61.7223,7.5133 -338.2807,10.9094 -408,5.0101 l 0,0 z"
     id="path4050"
     inkscape:connector-curvature="0" />
  <path
     style="fill:#ffffff;fill-opacity:1;stroke:none"
     d=""
     id="path5016"
     inkscape:connector-curvature="0" />
  <path
     style="fill:#ffffff;fill-opacity:1;stroke:none"
     d=""
     id="path5022"
     inkscape:connector-curvature="0" />
  <path
     style="font-size:medium;font-style:normal;font-variant:normal;font-weight:normal;font-stretch:normal;text-indent:0;text-align:start;text-decoration:none;line-height:normal;letter-spacing:normal;word-spacing:normal;text-transform:none;direction:ltr;block-progression:tb;writing-mode:lr-tb;text-anchor:start;baseline-shift:baseline;color:#000000;fill:#000000;fill-opacity:1;stroke:none;stroke-width:15;marker:none;visibility:visible;display:inline;overflow:visible;enable-background:accumulate;font-family:Sans;-inkscape-font-specification:Sans"
     d="m 1409.5479,2329.8484 -529.43746,0 -350.0003,0 0,15 350.0003,0 529.43746,0 0,317.375 0,0.1875 0,0.2188 c 0,0 7.7328,142.0792 99.7813,284 85.3913,131.6574 244.0722,263.2204 534.125,281.5624 l 0,39.1563 0,107.75 c 0,111.6568 90.6557,202.3437 202.3124,202.3437 l 136.125,0 343.875,0 0,-15 -343.875,0 -136.125,0 c -103.5504,0 -187.3124,-83.7933 -187.3124,-187.3437 l 0,-107.75 0,-38.3125 0,-15 -15,-0.8438 c -285.3194,-18.1327 -438.373,-146.4563 -521.5626,-274.7187 -89.7727,-138.4131 -97.3437,-276.6563 -97.3437,-276.6563 l 0,-316.9687 0,-15 m 0,-110.1875 0,-15 0,-861.125 c 0.064,-0.6735 1.9742,-20.0994 14.7813,-50.4375 13.0334,-30.8747 37.2233,-72.2175 82,-113.75 82.9781,-76.9663 237.0424,-154.8508 523.125,-165.875 l 0,-0.125 c 4.9588,-0.19 9.9635,0.1496 15,0 l 0,-40.59376 0,-107.75 c -4e-4,-103.55067 83.762,-187.34375 187.3121,-187.34375 l 136.125,0 343.875,0 0,-15 -343.875,0 -136.125,0 c -111.6567,0 -202.3124,90.68694 -202.3124,202.34375 l 0,107.75 0,24.59375 c -289.0358,11.06971 -447.1848,91.11251 -533.3126,171.00001 -46.4447,43.0798 -71.8695,86.353 -85.625,118.9375 -13.7552,32.5845 -15.9374,55.0938 -15.9374,55.0938 l -0.031,0.3437 0,0.3437 0,861.5938 -529.43746,0 -350.0003,0 0,15 350.0003,0 529.43746,0 M 2246.7663,787.84839 c -42.525,0 -77.1562,34.62952 -77.1562,77.15625 l 0,107.75 0,39.59376 c 0,-0.045 10.0423,0.8124 15,1 l 0,0.094 c 286.5243,10.9089 440.213,88.8823 522.6875,165.9063 44.4623,41.5239 68.3524,82.851 81.1563,113.7187 12.5792,30.327 14.3465,49.7273 14.4062,50.4063 l 0,1318.7187 0,0.031 c -0.1286,2.2397 -8.3065,138.972 -97.3438,276.25 -83.2229,128.3142 -236.3649,256.699 -521.9062,274.75 l -15,0.8437 0,15 0,38.2813 0,107.75 c 0,42.5267 34.6312,77.1563 77.1562,77.1563 l 136.125,0 343.875,0 0,-15 -343.875,0 -136.125,0 c -34.4202,0 -62.1562,-27.7374 -62.1562,-62.1563 l 0,-107.75 0,-39.125 c 290.2719,-18.2594 449.0431,-149.8841 534.4688,-281.5937 92.0479,-141.9208 99.7812,-284 99.7812,-284 l 0,-0.2188 0,-0.1875 0,-1319.1563 0,-0.3124 -0.031,-0.3126 c 0,0 -2.0127,-22.5335 -15.5313,-55.125 -13.5186,-32.5912 -38.6126,-75.8491 -84.75,-118.9374 -85.6412,-79.981 -243.4449,-159.6434 -532.9375,-170.59381 l 0,-25.03125 0,-107.75 c 0,-34.41895 27.736,-62.15625 62.1562,-62.15625 l 136.125,0 343.875,0 0,-15 -343.875,0 z"
     id="path3544-7-0-9"
     inkscape:connector-curvature="0"
     sodipodi:nodetypes="cccccccccsccssccccssccccsccccccssccccssccccssccsscccccccccssccccsccccsccccssccccssccsccccccssccssccccs" />
  <path
     style="fill:#ffffff;fill-opacity:1;stroke:none"
     d="m 2462.0589,681.11108 c -89.7468,2.34914 -181.1774,-2.48935 -269.8964,4.24661 -77.6615,29.51085 -136.4936,107.20207 -128.3006,192.15148 -0.3719,45.0176 -0.2364,90.03876 -0.2577,135.05823 -184.4147,12.6644 -384.6606,36.3659 -531.0372,159.9829 -47.609,41.8067 -85.2837,96.4152 -105.379,155.917 -1.0862,296.6899 -2.0793,593.3802 -2.9851,890.0707 -297.7221,0.7076 -596.61601,-1.414 -893.60616,1.0607 0.7557,36.0137 -1.46148,73.2588 1.06066,108.5409 297.27948,0 594.5589,0 891.8384,0 4.6358,130.0639 -3.3155,261.0487 10.9601,390.4997 39.8497,187.1702 165.8042,358.8942 345.6613,432.3496 87.1341,38.3109 181.8775,54.9192 276.4159,60.8573 6.0795,75.4779 -5.6596,154.2075 15.5564,227.5117 28.8274,77.964 111.1134,127.4331 193.2097,119.5512 152.0311,2.7438 305.2948,3.0363 456.6214,1.364 -0.7557,-36.0137 1.4615,-73.2589 -1.0606,-108.5409 -166.3433,-2.4049 -333.1592,5.0513 -499.2174,-4.4194 -50.9666,-8.8556 -55.2867,-68.9012 -53.7401,-111.5461 -0.7611,-41.2409 -0.1635,-82.4966 -0.3536,-123.7437 193.2776,-6.8834 392.9849,-82.9141 511.706,-241.346 83.0504,-107.8389 127.7082,-244.749 120.2707,-381.0847 2.0536,-424.2452 -0.8786,-848.6123 -1.4142,-1272.7922 -60.2632,-153.8971 -220.56,-237.6188 -373.706,-271.3522 -84.3275,-19.3439 -170.7881,-26.1669 -256.8565,-32.7037 4.8317,-63.98934 -11.7948,-134.11826 15.9099,-193.7473 34.772,-47.12984 102.0608,-26.46233 152.5583,-32.88047 130.3716,-1.99331 261.9189,-0.59584 391.5604,-3.88908 -0.7146,-34.08623 1.424,-69.35426 -1.0607,-102.70726 -88.1526,0.53033 -176.3053,1.06066 -264.4579,1.59099 z"
     id="path5940"
     inkscape:connector-curvature="0" />
  <path
     style="fill:#ff0000;fill-opacity:1;stroke:none"
     d="m 1425.4577,2571.3508 c 2.7657,53.9919 2.5077,108.5312 12.4185,161.839 38.1434,161.4245 141.0997,309.5434 286.9564,391.0894 101.2371,55.1687 216.1763,80.9258 330.7014,87.6219 3.6089,30.6674 2.2855,61.7809 3.525,92.6303 1.8901,46.4228 -1.4544,94.7519 15.0807,138.9914 22.8394,59.157 79.5625,102.2663 141.4656,113.0929 53.4958,4.5892 107.3158,2.7222 160.9541,3.9316 115.0208,1.5633 230.0526,1.3662 345.0692,-0.4403 1.5918,-23.8583 0.3995,-48.9708 0.4816,-73.3178 -0.5106,-11.625 0.323,-24.0525 -2.2936,-35.1347 -150.4633,-0.5158 -300.9658,1.44 -451.3975,-2.3083 -19.9898,-1.7741 -41.2154,0.7081 -60.1942,-6.4863 -27.6524,-12.2754 -38.147,-44.7078 -39.0675,-73.0944 -2.1532,-52.2915 -0.8026,-104.6579 -1.1934,-156.9805 18.0769,-2.9047 36.9452,-2.0176 55.2205,-4.8081 138.4149,-14.4315 275.7033,-64.6676 381.2853,-156.9868 105.0581,-93.2884 174.9409,-225.8054 191.8911,-365.3974 4.0006,-37.953 3.1813,-76.1864 4.1101,-114.2861 -24.6342,-1.6503 -50.538,-0.2355 -75.6604,-0.7071 -432.882,0 -865.7639,0 -1298.6458,0 l -0.7071,0.7513 z"
     id="path5944"
     inkscape:connector-curvature="0" />
  <g
     id="g4634-1-1-1"
     style="fill:#ff0000"
     inkscape:export-filename="C:\Users\andrew\Documents\vce-desktop\reactor_mod.png"
     inkscape:export-xdpi="35.450001"
     inkscape:export-ydpi="35.450001"
     transform="matrix(2.8314683,0,0,1.8932649,-346.12284,765.16103)">
    <path
       style="fill:#ff0000;fill-opacity:1;stroke:none"
       d="m -3479,2723.6875 c -6.2164,0.1562 -20.6278,5.4843 -32.75,18.4687 -0.7419,0.7948 -11.4237,10.4411 -26.2812,11.4688 l 0,33.5312 40.1874,0 10.9376,0 0,0.031 67.6562,0 67.6875,0 10.9063,0 67.6874,0 10.9063,0 67.6875,0 10.9375,0 67.6563,0 10.9374,0 67.6563,0 10.9375,0 67.6562,0 10.9376,0 67.6562,0 10.9375,0 10.9375,0 56.7188,0 10.9374,0 10.9376,0 56.7187,0 10.9375,0 66.875,0 c 29.9999,5.0014 72.8139,20.2289 100.0938,37.7187 56.3204,36.904 94.8769,98.2083 106.5312,169.375 l 2.5,34.3441 63,0 66.9651,0 c 0,-25 -7.3173,-31.0689 -11.1213,-41.8128 -19.5359,-55.0113 -50.2035,-104.2787 -89.375,-143.5937 -88.5248,-73.9324 -186.3902,-91.0299 -269.1563,-89.4688 -1.0484,0.011 -1.5133,0.023 -2.4063,0.031 -5.6094,-0.2199 -11.8994,-1.5472 -17,-7.4062 -3.7229,-4.2768 -5.1438,-13.0438 2.0313,-17.9688 4.4231,-3.0358 3.6362,-4.7813 -0.094,-4.6874 -6.2164,0.1561 -20.628,5.4218 -32.75,18.4062 -0.7773,0.8325 -12.4045,11.422 -28.375,11.5938 -1.2479,0.013 -1.8449,0.022 -2.875,0.031 -0.052,0 -0.1046,0 -0.1563,0 -5.4485,-0.2951 -11.4643,-1.734 -16.375,-7.375 -3.7231,-4.2768 -5.1439,-13.0439 2.0313,-17.9688 4.4229,-3.0358 3.636,-4.7812 -0.094,-4.6874 -6.2164,0.1561 -20.6278,5.4218 -32.75,18.4062 -0.7772,0.8325 -12.4043,11.4221 -28.375,11.5938 -1.2478,0.013 -1.8448,0.022 -2.875,0.031 -0.052,0 -0.1045,0 -0.1562,0 -5.4485,-0.2951 -11.4643,-1.734 -16.375,-7.375 -3.7232,-4.2768 -5.1439,-13.044 2.0312,-17.9688 11.7949,-8.0956 -13.4482,-7.0563 -32.8438,13.7188 -0.7772,0.8325 -12.4355,11.4222 -28.4062,11.5938 -1.239,0.013 -1.8197,0.022 -2.8438,0.031 -5.4888,-0.2764 -11.5738,-1.6804 -16.5312,-7.375 -3.7231,-4.2768 -5.1439,-13.044 2.0312,-17.9688 11.7949,-8.0956 -13.4482,-7.0563 -32.8437,13.7188 -0.7772,0.8325 -12.4355,11.4222 -28.4063,11.5938 -1.239,0.013 -1.8197,0.022 -2.8437,0.031 -5.4889,-0.2764 -11.5739,-1.6804 -16.5313,-7.375 -3.7231,-4.2768 -5.1438,-13.044 2.0313,-17.9688 11.7949,-8.0956 -13.4482,-7.0563 -32.8437,13.7188 -0.7773,0.8325 -12.4356,11.4222 -28.4063,11.5938 -1.239,0.013 -1.8197,0.022 -2.8437,0.031 -5.4889,-0.2764 -11.6052,-1.6804 -16.5626,-7.375 -3.7231,-4.2768 -5.1126,-13.044 2.0626,-17.9688 11.7948,-8.0956 -13.4483,-7.0563 -32.8438,13.7188 -0.7772,0.8325 -12.4355,11.4222 -28.4062,11.5938 -1.2391,0.013 -1.8198,0.022 -2.8438,0.031 -5.4889,-0.2764 -11.6051,-1.6804 -16.5625,-7.375 -3.7231,-4.2768 -5.1439,-13.044 2.0313,-17.9688 11.7948,-8.0956 -13.417,-7.0563 -32.8126,13.7188 -0.7772,0.8325 -12.4355,11.4222 -28.4062,11.5938 -1.239,0.013 -1.8197,0.022 -2.8438,0.031 -5.4888,-0.2764 -11.6051,-1.6804 -16.5624,-7.375 -3.7232,-4.2768 -5.1439,-13.044 2.0312,-17.9688 11.7949,-8.0956 -13.417,-7.0563 -32.8125,13.7188 -0.7772,0.8325 -12.4355,11.4222 -28.4063,11.5938 -1.239,0.013 -1.8197,0.022 -2.8437,0.031 -5.4889,-0.2764 -11.6051,-1.6804 -16.5625,-7.375 -3.7231,-4.2768 -5.1439,-13.044 2.0312,-17.9688 11.7949,-8.0956 -13.4169,-7.0563 -32.8124,13.7188 -0.7773,0.8325 -12.4356,11.4222 -28.4063,11.5938 -1.239,0.013 -1.8197,0.022 -2.8437,0.031 -5.4889,-0.2764 -11.6052,-1.6804 -16.5626,-7.375 -3.7231,-4.2768 -5.1438,-13.044 2.0313,-17.9688 11.7949,-8.0956 -13.417,-7.0563 -32.8125,13.7188 -0.7772,0.8325 -12.4355,11.4222 -28.4062,11.5938 -1.4705,0.016 -2.2039,0.021 -3.375,0.031 -5.3595,-0.337 -11.2235,-1.8209 -16.0313,-7.3438 -3.7231,-4.2768 -5.1439,-13.0752 2.0313,-18 4.423,-3.0358 3.6359,-4.8124 -0.094,-4.7187 z"
       transform="matrix(0.35317365,0,0,0.52818811,1559.0351,-645.14807)"
       id="path4065-8-4-1-2"
       inkscape:connector-curvature="0"
       sodipodi:nodetypes="cccccccccccccccccccccccccccccccccccccccccccccsscscccsssccsssccsscccsssccssscccssccsscccsssccsscc" />
  </g>
  <rect
     style="fill:url(#pattern5360);fill-opacity:1;stroke:none"
     id="rect3866"
     width="1378.4645"
     height="149.81628"
     x="1421.6456"
     y="1477.5336"
     ry="0" />
</svg>
