<?xml version="1.0" encoding="UTF-8" standalone="no"?>
<!-- Created with Inkscape (http://www.inkscape.org/) -->

<svg
   xmlns:dc="http://purl.org/dc/elements/1.1/"
   xmlns:cc="http://creativecommons.org/ns#"
   xmlns:rdf="http://www.w3.org/1999/02/22-rdf-syntax-ns#"
   xmlns:svg="http://www.w3.org/2000/svg"
   xmlns="http://www.w3.org/2000/svg"
   xmlns:sodipodi="http://sodipodi.sourceforge.net/DTD/sodipodi-0.dtd"
   xmlns:inkscape="http://www.inkscape.org/namespaces/inkscape"
   id="svg2985"
   version="1.1"
   inkscape:version="0.48.5 r10040"
   width="1777.0938"
   height="1777.0938"
   sodipodi:docname="reactor.svg">
  <metadata
     id="metadata2991">
    <rdf:RDF>
      <cc:Work
         rdf:about="">
        <dc:format>image/svg+xml</dc:format>
        <dc:type
           rdf:resource="http://purl.org/dc/dcmitype/StillImage" />
        <dc:title />
      </cc:Work>
    </rdf:RDF>
  </metadata>
  <defs
     id="defs2989">
    <clipPath
       clipPathUnits="userSpaceOnUse"
       id="clipPath3765">
      <rect
         style="fill:none;stroke:#000000;stroke-width:1.00063086;stroke-opacity:1"
         id="rect3767"
         width="1426.4146"
         height="1625.1566"
         x="301.88708"
         y="186.16383"
         ry="33.114895" />
    </clipPath>
  </defs>
  <sodipodi:namedview
     pagecolor="#ffffff"
     bordercolor="#666666"
     borderopacity="1"
     objecttolerance="10"
     gridtolerance="10"
     guidetolerance="10"
     inkscape:pageopacity="0"
     inkscape:pageshadow="2"
     inkscape:window-width="1920"
     inkscape:window-height="1001"
     id="namedview2987"
     showgrid="false"
     showborder="false"
     inkscape:showpageshadow="false"
     inkscape:zoom="0.19875"
     inkscape:cx="2837.0173"
     inkscape:cy="336.90882"
     inkscape:window-x="-9"
     inkscape:window-y="-9"
     inkscape:window-maximized="1"
     inkscape:current-layer="svg2985"
     fit-margin-top="0"
     fit-margin-left="0"
     fit-margin-right="0"
     fit-margin-bottom="0" />
  <rect
     style="fill:#00a5ff;fill-opacity:1;stroke:#000000;stroke-opacity:1"
     id="rect3771"
     width="1776.1006"
     height="1776.1006"
     x="0.49572754"
     y="0.50490952"
     ry="33.114895" />
  <g
     id="layer1"
     inkscape:label="Layer 1"
     transform="matrix(28.077321,0,0,28.077321,-126.75095,-137.92163)">
    <g
       id="g3724">
      <path
         sodipodi:type="arc"
         style="fill:#ffffff;fill-opacity:1;stroke:#000000;stroke-width:0.26220471;stroke-miterlimit:4;stroke-opacity:1;stroke-dasharray:none"
         id="path2787"
         sodipodi:cx="42.519684"
         sodipodi:cy="24.80315"
         sodipodi:rx="0"
         sodipodi:ry="0"
         transform="matrix(1.080866,0,0,1.1596753,-1.2015832,4.4126935)" />
      <path
         sodipodi:type="arc"
         style="fill:none;stroke:#000000;stroke-width:0.93524778;stroke-miterlimit:4;stroke-opacity:1;stroke-dasharray:none;stroke-dashoffset:0"
         id="path2182"
         sodipodi:cx="33.661419"
         sodipodi:cy="22.14567"
         sodipodi:rx="12.401575"
         sodipodi:ry="4.4291339"
         d="M 46.061105,22.222969 C 45.94157,24.66874 40.293139,26.61682 33.444982,26.574129 26.681187,26.531964 21.259844,24.561678 21.259844,22.14567"
         sodipodi:start="0.017453293"
         sodipodi:end="3.1415927"
         sodipodi:open="true"
         transform="matrix(1.156557,0,0,-1.1523712,-2.7885246,54.057442)" />
      <path
         sodipodi:type="arc"
         style="fill:none;stroke:#000000;stroke-width:0.9361276;stroke-miterlimit:4;stroke-opacity:1;stroke-dasharray:none;stroke-dashoffset:0"
         id="path3154"
         sodipodi:cx="0.88582677"
         sodipodi:cy="19.48819"
         sodipodi:rx="11.942792"
         sodipodi:ry="7.0866141"
         d="m 12.8268,19.364511 c 0.115113,3.913233 -5.1377253,7.140908 -11.7325426,7.209214 -6.5948173,0.0683 -12.0342904,-3.048624 -12.1494034,-6.961857 -0.0012,-0.04122 -0.0018,-0.08245 -0.0018,-0.123679"
         sodipodi:start="6.265732"
         sodipodi:end="9.424778"
         transform="matrix(1.1994516,-0.02244251,0,1.1810176,35.079226,27.4354)"
         sodipodi:open="true" />
      <path
         style="color:#000000;fill:#ffffff;fill-opacity:1;fill-rule:nonzero;stroke:#000000;stroke-width:1.0629921;stroke-linecap:butt;stroke-linejoin:miter;stroke-miterlimit:4;stroke-opacity:1;stroke-dasharray:none;stroke-dashoffset:0;marker:none;visibility:visible;display:inline;overflow:visible;enable-background:accumulate"
         d="m 21.791339,27.986358 c 0,22.860099 0,22.860099 0,22.860099"
         id="path3156"
         inkscape:connector-curvature="0" />
      <path
         style="color:#000000;fill:#ffffff;fill-opacity:1;fill-rule:nonzero;stroke:#000000;stroke-width:1.04894149;stroke-linecap:butt;stroke-linejoin:miter;stroke-miterlimit:4;stroke-opacity:1;stroke-dasharray:none;stroke-dashoffset:0;marker:none;visibility:visible;display:inline;overflow:visible;enable-background:accumulate"
         d="m 50.491283,28.154514 c 0,22.35239 0,22.35239 0,22.35239"
         id="path3158"
         inkscape:connector-curvature="0" />
      <path
         style="color:#000000;fill:#ffffff;fill-opacity:1;fill-rule:nonzero;stroke:#000000;stroke-width:0.79340136;stroke-linecap:butt;stroke-linejoin:miter;stroke-miterlimit:4;stroke-opacity:1;stroke-dasharray:none;stroke-dashoffset:0;marker:none;visibility:visible;display:inline;overflow:visible;enable-background:accumulate"
         d="m 35.919058,16.341583 c 0,33.6018 0,33.6018 0,33.6018 l 0,-33.6018 z"
         id="path3174"
         inkscape:connector-curvature="0" />
      <rect
         style="fill:#ffffff;fill-opacity:1;stroke:#000000;stroke-width:0.67344308;stroke-miterlimit:4;stroke-opacity:1;stroke-dasharray:none;stroke-dashoffset:0"
         id="rect3176"
         width="4.2524924"
         height="6.6220703"
         x="33.780254"
         y="9.3404207" />
      <path
         style="color:#000000;fill:#ffffff;fill-opacity:1;fill-rule:nonzero;stroke:#000000;stroke-width:0.44291332;stroke-linecap:butt;stroke-linejoin:miter;stroke-miterlimit:4;stroke-opacity:1;stroke-dasharray:none;stroke-dashoffset:0;marker:none;visibility:visible;display:inline;overflow:visible;enable-background:accumulate"
         d="m 32.775591,10.629922 c 6.200787,0 6.200787,0 6.200787,0"
         id="path4346"
         inkscape:connector-curvature="0" />
      <path
         style="color:#000000;fill:#ffffff;fill-opacity:1;fill-rule:nonzero;stroke:#000000;stroke-width:0.44291332;stroke-linecap:butt;stroke-linejoin:miter;stroke-miterlimit:4;stroke-opacity:1;stroke-dasharray:none;stroke-dashoffset:0;marker:none;visibility:visible;display:inline;overflow:visible;enable-background:accumulate"
         d="m 32.775591,14.173229 c 6.200787,0 6.200787,0 6.200787,0"
         id="path4348"
         inkscape:connector-curvature="0" />
      <path
         sodipodi:type="arc"
         style="fill:#ffffff;fill-opacity:1;stroke:#000000;stroke-width:1.0629921;stroke-miterlimit:4;stroke-opacity:1;stroke-dasharray:none;stroke-dashoffset:0"
         id="path4350"
         sodipodi:cx="6.2007875"
         sodipodi:cy="14.616142"
         sodipodi:rx="3.5433071"
         sodipodi:ry="1.3287401"
         d="m 9.7440946,14.616142 c 0,0.733843 -1.5863926,1.32874 -3.5433071,1.32874 -1.9569144,0 -3.543307,-0.594897 -3.543307,-1.32874 0,-0.733843 1.5863926,-1.32874 3.543307,-1.32874 1.9569145,0 3.5433071,0.594897 3.5433071,1.32874 z"
         transform="matrix(1.035605,0,0,0.5616133,25.801437,41.174114)" />
      <path
         sodipodi:type="arc"
         style="fill:#ffffff;fill-opacity:1;stroke:#000000;stroke-width:1.0629921;stroke-miterlimit:4;stroke-opacity:1;stroke-dasharray:none;stroke-dashoffset:0"
         id="path4734"
         sodipodi:cx="6.2007875"
         sodipodi:cy="14.616142"
         sodipodi:rx="3.5433071"
         sodipodi:ry="1.3287401"
         d="m 9.7440946,14.616142 c 0,0.733843 -1.5863926,1.32874 -3.5433071,1.32874 -1.9569144,0 -3.543307,-0.594897 -3.543307,-1.32874 0,-0.733843 1.5863926,-1.32874 3.543307,-1.32874 1.9569145,0 3.5433071,0.594897 3.5433071,1.32874 z"
         transform="matrix(1.035605,0,0,0.5616133,33.122865,41.174114)" />
      <path
         style="fill:#ffffff;fill-opacity:1;stroke:#ffffff;stroke-width:0.09491001;stroke-linecap:square;stroke-miterlimit:4;stroke-opacity:1;stroke-dasharray:none;stroke-dashoffset:0"
         d="M 34.611979,58.183752 C 29.042122,57.984461 24.116095,55.606508 22.805273,52.484268 22.419202,51.564685 22.430532,51.918007 22.401506,39.894982 c -0.0318,-13.173706 -0.111634,-11.93309 0.823009,-12.789514 1.790107,-1.640316 6.082232,-2.836233 10.874071,-3.029854 l 1.40625,-0.05682 0,12.286126 0,12.286127 -0.245536,-0.08013 c -1.223866,-0.399407 -4.77675,-0.37498 -6.229419,0.04283 -1.13584,0.326686 -1.23075,1.1971 -0.173518,1.591256 1.403821,0.523372 5.456375,0.540335 6.682625,0.02797 0.289402,-0.120914 0.365544,-0.12105 0.703232,-0.0012 1.049598,0.372373 3.588652,0.496958 5.349866,0.262506 1.636714,-0.217881 2.319813,-0.666397 1.989062,-1.306005 -0.304785,-0.589393 -1.639124,-0.889739 -3.969169,-0.89342 -1.30917,-0.0021 -2.369786,0.08365 -3.003705,0.242751 l -0.210581,0.05285 0,-12.255794 0,-12.255794 1.450893,0.0564 c 4.094786,0.159176 7.96417,1.085563 10.103437,2.418909 0.68834,0.429016 1.33884,1.061642 1.483858,1.443058 0.05459,0.14358 0.08681,4.469699 0.08681,11.653918 0,11.311598 -0.0018,11.431114 -0.184607,11.980795 -1.010884,3.040264 -5.039438,5.534327 -10.269982,6.358104 -0.828982,0.130558 -3.244822,0.327501 -3.607911,0.294121 -0.09821,-0.009 -0.479911,-0.0272 -0.848214,-0.04038 l 0,-2e-6 z"
         id="path3181"
         inkscape:connector-curvature="0" />
      <path
         style="fill:#ffffff;fill-opacity:1;stroke:#ffffff;stroke-width:0.09491001;stroke-linecap:square;stroke-miterlimit:4;stroke-opacity:1;stroke-dasharray:none;stroke-dashoffset:0"
         d="m 30.216684,49.544068 c -0.379464,-0.05848 -0.712741,-0.129148 -0.740625,-0.15703 -0.109232,-0.10923 1.486509,-0.265795 2.71992,-0.266863 1.331902,-0.0012 2.897312,0.165291 2.67358,0.284272 -0.482321,0.2565 -3.338473,0.342204 -4.652875,0.139622 l 0,-10e-7 z"
         id="path3185"
         inkscape:connector-curvature="0" />
      <path
         style="fill:#ffffff;fill-opacity:1;stroke:#ffffff;stroke-width:0.09491001;stroke-linecap:square;stroke-miterlimit:4;stroke-opacity:1;stroke-dasharray:none;stroke-dashoffset:0"
         d=""
         id="path3187"
         inkscape:connector-curvature="0" />
      <path
         sodipodi:type="arc"
         style="fill:#ffffff;fill-opacity:1;stroke:#000000;stroke-width:0.68734217;stroke-linecap:square;stroke-linejoin:miter;stroke-miterlimit:4;stroke-opacity:1;stroke-dasharray:none;stroke-dashoffset:0"
         id="path2977"
         sodipodi:cx="9.2125988"
         sodipodi:cy="34.015747"
         sodipodi:rx="1.4173229"
         sodipodi:ry="1.4173229"
         d="m 10.629706,33.991011 c 0.01366,0.782647 -0.609725,1.428182 -1.3923715,1.441843 -0.7826466,0.01366 -1.4281815,-0.609725 -1.4418427,-1.392371 -2.878e-4,-0.01649 -2.878e-4,-0.03298 0,-0.04947"
         sodipodi:start="6.265732"
         sodipodi:end="9.4422312"
         sodipodi:open="true"
         transform="matrix(0,-1,1.062996,0,15.169082,45.697414)" />
      <path
         sodipodi:type="arc"
         style="fill:#ffffff;fill-opacity:1;stroke:#000000;stroke-width:0.68734217;stroke-linecap:square;stroke-linejoin:miter;stroke-miterlimit:4;stroke-opacity:1;stroke-dasharray:none;stroke-dashoffset:0"
         id="path2985"
         sodipodi:cx="9.2125988"
         sodipodi:cy="34.015747"
         sodipodi:rx="1.4173229"
         sodipodi:ry="1.4173229"
         d="m 10.629706,33.991011 c 0.01366,0.782647 -0.609725,1.428182 -1.3923715,1.441843 -0.7826466,0.01366 -1.4281815,-0.609725 -1.4418427,-1.392371 -2.878e-4,-0.01649 -2.878e-4,-0.03298 0,-0.04947"
         sodipodi:start="6.265732"
         sodipodi:end="9.4422312"
         sodipodi:open="true"
         transform="matrix(0,-1,1.062996,0,15.163457,55.608128)" />
      <path
         sodipodi:type="arc"
         style="fill:#ffffff;fill-opacity:1;stroke:#000000;stroke-width:0.68734217;stroke-linecap:square;stroke-linejoin:miter;stroke-miterlimit:4;stroke-opacity:1;stroke-dasharray:none;stroke-dashoffset:0"
         id="path2987"
         sodipodi:cx="9.2125988"
         sodipodi:cy="34.015747"
         sodipodi:rx="1.4173229"
         sodipodi:ry="1.4173229"
         d="m 10.629706,33.991011 c 0.01366,0.782647 -0.609725,1.428182 -1.3923715,1.441843 -0.7826466,0.01366 -1.4281815,-0.609725 -1.4418427,-1.392371 -2.878e-4,-0.01649 -2.878e-4,-0.03298 0,-0.04947"
         sodipodi:start="6.265732"
         sodipodi:end="9.4422312"
         sodipodi:open="true"
         transform="matrix(0,-1,1.062996,0,15.163457,50.652771)" />
      <path
         sodipodi:type="arc"
         style="fill:#ffffff;fill-opacity:1;stroke:#000000;stroke-width:0.68734217;stroke-linecap:square;stroke-linejoin:miter;stroke-miterlimit:4;stroke-opacity:1;stroke-dasharray:none;stroke-dashoffset:0"
         id="path2989"
         sodipodi:cx="9.2125988"
         sodipodi:cy="34.015747"
         sodipodi:rx="1.4173229"
         sodipodi:ry="1.4173229"
         d="m 10.629706,33.991011 c 0.01366,0.782647 -0.609725,1.428182 -1.3923715,1.441843 -0.7826466,0.01366 -1.4281815,-0.609725 -1.4418427,-1.392371 -2.878e-4,-0.01649 -2.878e-4,-0.03298 0,-0.04947"
         sodipodi:start="6.265732"
         sodipodi:end="9.4422312"
         sodipodi:open="true"
         transform="matrix(0,-1,-1.062996,0,57.169643,45.697414)" />
      <path
         sodipodi:type="arc"
         style="fill:#ffffff;fill-opacity:1;stroke:#000000;stroke-width:0.68734217;stroke-linecap:square;stroke-linejoin:miter;stroke-miterlimit:4;stroke-opacity:1;stroke-dasharray:none;stroke-dashoffset:0"
         id="path2991"
         sodipodi:cx="9.2125988"
         sodipodi:cy="34.015747"
         sodipodi:rx="1.4173229"
         sodipodi:ry="1.4173229"
         d="m 10.629706,33.991011 c 0.01366,0.782647 -0.609725,1.428182 -1.3923715,1.441843 -0.7826466,0.01366 -1.4281815,-0.609725 -1.4418427,-1.392371 -2.878e-4,-0.01649 -2.878e-4,-0.03298 0,-0.04947"
         sodipodi:start="6.265732"
         sodipodi:end="9.4422312"
         sodipodi:open="true"
         transform="matrix(0,-1,-1.062996,0,57.152419,55.658396)" />
      <path
         sodipodi:type="arc"
         style="fill:#ffffff;fill-opacity:1;stroke:#000000;stroke-width:0.68734217;stroke-linecap:square;stroke-linejoin:miter;stroke-miterlimit:4;stroke-opacity:1;stroke-dasharray:none;stroke-dashoffset:0"
         id="path2993"
         sodipodi:cx="9.2125988"
         sodipodi:cy="34.015747"
         sodipodi:rx="1.4173229"
         sodipodi:ry="1.4173229"
         d="m 10.629706,33.991011 c 0.01366,0.782647 -0.609725,1.428182 -1.3923715,1.441843 -0.7826466,0.01366 -1.4281815,-0.609725 -1.4418427,-1.392371 -2.878e-4,-0.01649 -2.878e-4,-0.03298 0,-0.04947"
         sodipodi:start="6.265732"
         sodipodi:end="9.4422312"
         sodipodi:open="true"
         transform="matrix(0,-1,-1.062996,0,57.152419,50.703039)" />
      <path
         sodipodi:type="arc"
         style="fill:#ffffff;fill-opacity:1;stroke:#000000;stroke-width:0.70866144;stroke-linecap:square;stroke-linejoin:miter;stroke-miterlimit:4;stroke-opacity:1;stroke-dasharray:none;stroke-dashoffset:0"
         id="path2995"
         sodipodi:cx="17.410715"
         sodipodi:cy="56.334892"
         sodipodi:rx="1.3839285"
         sodipodi:ry="1.3169643"
         d="m 18.470866,57.181421 c -0.491297,0.557174 -1.364218,0.629849 -1.949723,0.162324 -0.585505,-0.467524 -0.661876,-1.298207 -0.170579,-1.855381 0.02588,-0.02935 0.0531,-0.05761 0.08157,-0.08471"
         sodipodi:start="0.6981317"
         sodipodi:end="3.9269908"
         sodipodi:open="true"
         transform="translate(6.3392857,-0.4910715)" />
      <path
         sodipodi:type="arc"
         style="fill:#ffffff;fill-opacity:1;stroke:#000000;stroke-width:0.70866144;stroke-linecap:square;stroke-linejoin:miter;stroke-miterlimit:4;stroke-opacity:1;stroke-dasharray:none;stroke-dashoffset:0"
         id="path2359"
         sodipodi:cx="17.410715"
         sodipodi:cy="56.334892"
         sodipodi:rx="1.3839285"
         sodipodi:ry="1.3169643"
         d="m 18.784328,56.49539 c -0.09315,0.721918 -0.783646,1.23529 -1.542271,1.14665 -0.758626,-0.08864 -1.298102,-0.745727 -1.204955,-1.467645 0.02761,-0.213997 0.110012,-0.41827 0.239965,-0.594882"
         sodipodi:start="0.12217305"
         sodipodi:end="3.7524579"
         sodipodi:open="true"
         transform="translate(11.306774,2.1763935)" />
      <path
         sodipodi:type="arc"
         style="fill:#ffffff;fill-opacity:1;stroke:#000000;stroke-width:0.70866144;stroke-linecap:square;stroke-linejoin:miter;stroke-miterlimit:4;stroke-opacity:1;stroke-dasharray:none;stroke-dashoffset:0"
         id="path2361"
         sodipodi:cx="17.410715"
         sodipodi:cy="56.334892"
         sodipodi:rx="1.3839285"
         sodipodi:ry="1.3169643"
         d="m 18.784328,56.49539 c -0.09315,0.721918 -0.783646,1.23529 -1.542271,1.14665 -0.758626,-0.08864 -1.298102,-0.745727 -1.204955,-1.467645 0.02761,-0.213997 0.110012,-0.41827 0.239965,-0.594882"
         sodipodi:start="0.12217305"
         sodipodi:end="3.7524579"
         sodipodi:open="true"
         transform="matrix(-1,0,0,1,60.972585,2.1261263)" />
      <path
         sodipodi:type="arc"
         style="fill:#ffffff;fill-opacity:1;stroke:#000000;stroke-width:0.70866144;stroke-linecap:square;stroke-linejoin:miter;stroke-miterlimit:4;stroke-opacity:1;stroke-dasharray:none;stroke-dashoffset:0"
         id="path2363"
         sodipodi:cx="17.410715"
         sodipodi:cy="56.334892"
         sodipodi:rx="1.3839285"
         sodipodi:ry="1.3169643"
         d="m 18.558044,57.071329 c -0.427404,0.602992 -1.28756,0.762099 -1.921212,0.355376 -0.633652,-0.406723 -0.800849,-1.225258 -0.373446,-1.82825 0.04956,-0.06992 0.106071,-0.135157 0.168744,-0.194797"
         sodipodi:start="0.59341195"
         sodipodi:end="3.9269908"
         sodipodi:open="true"
         transform="matrix(-1,0,0,1,65.703532,-0.6081272)" />
      <path
         style="fill:#ffffff;fill-opacity:1;stroke:none"
         d="m 20.813006,37.50157 c -0.258938,-0.0438 -0.437849,-0.135974 -0.62267,-0.320793 -0.386317,-0.386321 -0.407478,-0.918171 -0.053,-1.332298 0.203768,-0.23805 0.459013,-0.362141 0.801455,-0.389629 l 0.280331,-0.0225 0,1.05522 0,1.055219 -0.100447,-0.0052 c -0.05524,-0.0029 -0.192799,-0.02087 -0.305669,-0.03997 l 0,0 z"
         id="path2942"
         inkscape:connector-curvature="0" />
      <path
         style="fill:#ffffff;fill-opacity:1;stroke:none"
         d="m 20.731858,42.493282 c -0.817669,-0.182314 -1.128759,-1.098179 -0.570741,-1.680319 0.205018,-0.213882 0.456335,-0.328319 0.777674,-0.354113 l 0.280331,-0.0225 0,1.05522 0,1.055219 -0.14509,-0.0048 c -0.0798,-0.0026 -0.233776,-0.02455 -0.342174,-0.04872 l 0,1e-6 z"
         id="path3706"
         inkscape:connector-curvature="0" />
      <path
         style="fill:#ffffff;fill-opacity:1;stroke:none"
         d="m 20.731858,47.448639 c -0.817669,-0.182314 -1.128759,-1.098179 -0.570741,-1.680318 0.205018,-0.213881 0.456335,-0.32832 0.777674,-0.354114 l 0.280331,-0.0225 0,1.055219 0,1.055218 -0.14509,-0.0048 c -0.0798,-0.0026 -0.233776,-0.02455 -0.342174,-0.04872 l 0,10e-7 z"
         id="path3708"
         inkscape:connector-curvature="0" />
      <path
         style="fill:#ffffff;fill-opacity:1;stroke:none"
         d="m 23.433809,56.732678 c -0.104777,-0.02772 -0.258125,-0.127744 -0.386464,-0.252083 -0.338313,-0.327774 -0.389496,-0.695702 -0.153362,-1.102546 0.194567,-0.335228 0.202706,-0.334841 0.590165,0.02801 0.316884,0.296756 0.920117,0.795269 1.083188,0.895152 0.05485,0.03359 0.0359,0.06872 -0.10471,0.194124 -0.289661,0.258336 -0.642111,0.339645 -1.028817,0.237345 l 0,0 z"
         id="path3710"
         inkscape:connector-curvature="0" />
      <path
         style="fill:#ffffff;fill-opacity:1;stroke:none"
         d="m 28.421787,59.404086 c -0.435741,-0.140301 -0.684808,-0.46593 -0.684808,-0.895322 0,-0.182759 0.02853,-0.308623 0.09797,-0.432171 0.05388,-0.09587 0.111616,-0.168921 0.128299,-0.162329 0.01668,0.0066 0.414553,0.152481 0.884169,0.324196 0.81463,0.297869 0.853849,0.317631 0.853849,0.430223 0,0.06491 -0.06529,0.214865 -0.14509,0.333241 -0.240933,0.357406 -0.73233,0.531616 -1.134388,0.402162 z"
         id="path3712"
         inkscape:connector-curvature="0" />
      <path
         style="fill:#ffffff;fill-opacity:1;stroke:none"
         d="M 43.138765,59.305969 C 42.839318,59.176264 42.64301,58.927987 42.564849,58.580124 l -0.04076,-0.181399 0.442192,-0.137375 c 0.243197,-0.07556 0.642692,-0.215519 0.887764,-0.311026 l 0.44558,-0.173648 0.111353,0.190007 c 0.392357,0.669505 -0.05377,1.410007 -0.848107,1.407733 -0.147322,-4.22e-4 -0.33817,-0.03122 -0.424107,-0.06845 z"
         id="path3714"
         inkscape:connector-curvature="0" />
      <path
         style="fill:#ffffff;fill-opacity:1;stroke:none"
         d=""
         id="path3716"
         inkscape:connector-curvature="0" />
      <path
         style="fill:#ffffff;fill-opacity:1;stroke:none"
         d="m 51.04055,46.395505 0,-1.061995 0.305915,0.02804 c 0.6753,0.0619 1.091942,0.46522 1.087268,1.0525 -0.0028,0.353246 -0.191946,0.654793 -0.549129,0.875513 -0.114929,0.07102 -0.542371,0.167937 -0.740647,0.167937 l -0.103407,0 0,-1.061995 z"
         id="path3718"
         inkscape:connector-curvature="0" />
      <path
         style="fill:#ffffff;fill-opacity:1;stroke:none"
         d="m 51.04055,41.440148 0,-1.061997 0.305915,0.02804 c 0.6753,0.0619 1.091942,0.465221 1.087268,1.052501 -0.0028,0.353245 -0.191946,0.654793 -0.549129,0.875513 -0.114929,0.07102 -0.542371,0.167937 -0.740647,0.167937 l -0.103407,0 0,-1.061995 z"
         id="path3720"
         inkscape:connector-curvature="0" />
      <path
         style="fill:#ffffff;fill-opacity:1;stroke:none"
         d="m 51.04055,36.490937 0,-1.068143 0.30134,0.0287 c 0.165736,0.01578 0.371651,0.05872 0.457589,0.09541 0.479232,0.204616 0.724982,0.666029 0.618692,1.161643 -0.03982,0.185691 -0.09442,0.275156 -0.283036,0.463767 -0.247049,0.247051 -0.378973,0.303228 -0.837888,0.356802 l -0.256697,0.02997 0,-1.068142 z"
         id="path3722"
         inkscape:connector-curvature="0" />
    </g>
  </g>
</svg>
